<?xml version="1.0" encoding="utf-8"?>
<!-- Generator: Adobe Illustrator 22.1.0, SVG Export Plug-In . SVG Version: 6.00 Build 0)  -->
<svg version="1.1" id="Ebene_1" xmlns="http://www.w3.org/2000/svg" xmlns:xlink="http://www.w3.org/1999/xlink" x="0px" y="0px"
	 viewBox="0 0 850.4 172" style="enable-background:new 0 0 850.4 172;" xml:space="preserve">
<style type="text/css">
	.st0{fill:#FFFFFF;}
	.st1{fill:none;}
</style>
<path class="st0" d="M81.3,4.1h9.4v5.4H80.2c-5,0-9.2,0.4-12.4,1.1c-3.2,0.7-5.8,1.8-7.6,3.3s-3,3.4-3.7,5.7s-1,5-1,8.3
	c0,5.4,0.2,11.1,0.6,17c0.4,5.9,0.6,11.8,0.6,17.5c0,5.3-1.1,9.5-3.1,12.5c-2.1,3.1-6.2,5.1-12.2,6.2v0.7c6,1.1,10,3.2,12.2,6.2
	c2.1,3.1,3.1,7.2,3.1,12.5c0,6.5-0.2,12.4-0.6,17.6c-0.4,5.3-0.6,10.9-0.6,16.9c0,3.2,0.3,6,1,8.3s1.9,4.2,3.7,5.7s4.3,2.6,7.6,3.3
	c3.2,0.7,7.4,1.1,12.4,1.1h10.4v5.4h-9.4c-11,0-19.3-1.6-24.8-4.8c-5.5-3.2-8.3-9.3-8.3-18.3c0-6.7,0.3-13,0.8-18.8
	s0.8-11.9,0.8-18.3c0-1.8-0.4-3.6-1.1-5.3c-0.7-1.7-2-3.3-4-4.6c-1.9-1.3-4.7-2.4-8.2-3.2c-3.5-0.8-8.1-1.3-13.6-1.3v-5.8
	c5.5,0,10-0.4,13.6-1.3c3.5-0.8,6.3-1.9,8.2-3.2s3.2-2.8,4-4.6c0.7-1.7,1.1-3.5,1.1-5.3c0-5.8-0.3-11.8-0.8-18.3
	c-0.5-6.4-0.8-12.7-0.8-18.8c0-9,2.8-15.1,8.3-18.3C62,5.7,70.3,4.1,81.3,4.1z M193.1,120.5c-3.4,0.7-7.1,1.1-11.3,1.1
	s-7.7-0.5-10.6-1.5c-2.9-1-5.2-2.5-6.8-4.6c-1.7-2-2.9-4.5-3.6-7.5c-0.7-2.9-1.1-6.4-1.1-10.3V56.1h42.8V44h-42.8V19.5h-12.2
	l-2,24.5l-25.2,0.9v11.2H145v41.4c0,5.4,0.6,10.3,1.7,14.8c1.1,4.4,3,8.3,5.6,11.4c2.6,3.2,6,5.6,10.4,7.4c4.3,1.7,9.7,2.6,16,2.6
	c4.8,0,9.6-0.5,14.4-1.5c4.8-1,9.1-2.2,13-3.7l-3.1-10.8C199.7,118.9,196.5,119.8,193.1,120.5z M309.7,66.2c1.8,5,2.7,10.6,2.7,16.7
	c0,3.2-0.2,5.9-0.5,8.1h-68.4c0.6,9.5,3.9,17,10,22.5s13.9,8.3,23.5,8.3c5.2,0,9.9-0.7,14.1-2.2c4.3-1.4,8.4-3.4,12.5-5.9l5.2,9.7
	c-4.3,2.8-9.2,5.2-14.8,7.2c-5.5,2-11.8,3.1-18.9,3.1c-6.5,0-12.6-1.1-18.3-3.2c-5.7-2.1-10.7-5.1-14.9-9
	c-4.3-3.9-7.6-8.7-10.1-14.3c-2.5-5.6-3.7-12.1-3.7-19.3c0-7.2,1.3-13.6,3.8-19.4c2.5-5.7,5.8-10.5,10-14.5s8.9-7,14.2-9.1
	c5.3-2.1,10.8-3.1,16.5-3.1c6.2,0,11.8,1,16.7,3c4.9,2,9.1,4.8,12.5,8.4C305.3,56.8,307.9,61.1,309.7,66.2z M298.8,81.3
	c0-9-2.3-15.9-6.8-20.6c-4.6-4.7-10.9-7.1-19.1-7.1c-3.6,0-7.1,0.6-10.4,1.9c-3.3,1.3-6.3,3.1-8.9,5.4c-2.6,2.3-4.9,5.2-6.8,8.6
	c-1.9,3.4-3,7.4-3.5,11.8L298.8,81.3L298.8,81.3z M403.2,44H415v124.4h-14.8v-32.2l0.7-15.8c-3.8,3.7-8.2,6.9-13,9.5
	s-10,3.9-15.4,3.9c-5.8,0-11-1-15.6-3.1c-4.6-2-8.6-5-12-8.9s-5.9-8.7-7.7-14.3c-1.8-5.6-2.7-12.1-2.7-19.4c0-7.1,1.1-13.5,3.3-19.2
	c2.2-5.7,5.2-10.5,8.8-14.5c3.7-4,7.9-7,12.7-9.2c4.8-2.2,9.8-3.2,14.9-3.2c5.4,0,10.2,1,14.4,3.1c4.2,2,8.4,5,12.6,8.8h0.5
	L403.2,44z M400.3,64.6c-4-3.7-7.8-6.4-11.6-7.9c-3.8-1.6-7.6-2.3-11.4-2.3s-7.4,0.8-10.7,2.4c-3.3,1.6-6.2,3.9-8.6,6.8
	c-2.5,2.9-4.4,6.5-5.9,10.5c-1.4,4.1-2.2,8.6-2.2,13.7c0,10.6,2.2,18.8,6.8,24.7c4.5,5.9,10.8,8.8,19,8.8c8.6,0,16.9-4.4,24.7-13.1
	L400.3,64.6L400.3,64.6z M485.8,42.2c-2.8,0-5.3,1-7.5,3s-3.3,4.9-3.3,8.7c0,3.7,1.1,6.6,3.3,8.6c2.2,2,4.7,3.1,7.5,3.1
	s5.2-1,7.5-3.1c2.2-2,3.3-4.9,3.3-8.6c0-3.8-1.1-6.8-3.3-8.7C491,43.2,488.5,42.2,485.8,42.2z M485.8,110.3c-2.8,0-5.3,1-7.5,3
	s-3.3,4.9-3.3,8.7c0,3.7,1.1,6.6,3.3,8.6c2.2,2,4.7,3.1,7.5,3.1s5.2-1,7.5-3.1c2.2-2,3.3-4.9,3.3-8.6c0-3.8-1.1-6.8-3.3-8.7
	C491,111.3,488.5,110.3,485.8,110.3z M616.1,121.4c-5.3,0-9.5-1.4-12.5-4.2c-3.1-2.8-4.6-7.5-4.6-14V3.3h-44.6v12.1h29.9v86.8
	c0,10.4,2.4,18.3,7.3,23.6c4.9,5.3,12,7.9,21.3,7.9c4.8,0,8.9-0.5,12.4-1.5s7.2-2.2,11.2-3.7l-3.8-11.2
	C626.4,120.1,620.9,121.4,616.1,121.4z M713.8,92.5c-1.4,4-3,8.1-4.6,12.5s-3.2,8.7-4.8,12.9h-0.7c-1.8-4.2-3.6-8.5-5.5-13
	c-1.9-4.4-3.6-8.6-5.3-12.4l-21.4-48.4h-14.9l40.9,87.7l-2.7,6.5c-2.2,5.4-5.2,9.9-9,13.4s-8.8,5.3-14.9,5.3c-1.3,0-2.7-0.1-4-0.4
	c-1.4-0.2-2.7-0.5-3.9-0.9l-3.1,11.7c3.4,1.2,7.2,1.8,11.5,1.8c4.9,0,9.3-0.8,13.2-2.3c3.9-1.6,7.3-3.7,10.4-6.4
	c3-2.7,5.6-5.9,7.7-9.6c2.2-3.7,4.1-7.7,5.8-12.1L747,44.1h-14L713.8,92.5z M826.9,77.3c-3.5-0.8-6.2-1.9-8.1-3.2
	c-1.9-1.3-3.2-2.8-4-4.6c-0.7-1.7-1.1-3.5-1.1-5.3c0-5.8,0.2-11.8,0.7-18.3c0.5-6.4,0.7-12.7,0.7-18.8c0-9-2.7-15.1-8.1-18.3
	C801.6,5.6,793.3,4,782.2,4h-9.4v5.4h10.4c5,0,9.2,0.4,12.4,1.1c3.2,0.7,5.8,1.8,7.7,3.3s3.1,3.4,3.9,5.7c0.7,2.3,1.1,5,1.1,8.3
	c0,5.4-0.2,11.1-0.7,17s-0.7,11.8-0.7,17.5c0,5.3,1,9.5,3.1,12.5c2,3.1,6.1,5.1,12.1,6.2v0.7c-6,1.1-10,3.2-12.1,6.3
	c-2,3.1-3.1,7.3-3.1,12.4c0,6.5,0.2,12.4,0.7,17.6c0.5,5.3,0.7,10.9,0.7,16.9c0,3.2-0.4,6-1.1,8.3c-0.7,2.3-2,4.2-3.9,5.7
	s-4.4,2.6-7.7,3.3s-7.4,1.1-12.4,1.1h-10.4v5.4h9.4c11.2,0,19.4-1.6,24.8-4.8c5.4-3.2,8.1-9.3,8.1-18.3c0-6.7-0.2-13-0.7-18.8
	s-0.7-11.9-0.7-18.3c0-1.8,0.4-3.6,1.1-5.3c0.7-1.7,2-3.3,4-4.6c1.9-1.3,4.6-2.4,8.1-3.2c3.5-0.8,8-1.3,13.5-1.3v-5.8
	C834.8,78.6,830.3,78.2,826.9,77.3z"/>
<rect x="870.1" y="-77.4" class="st1" width="2.9" height="3.5"/>
</svg>
