<?xml version="1.0" encoding="utf-8"?>
<!-- Generator: Adobe Illustrator 22.1.0, SVG Export Plug-In . SVG Version: 6.00 Build 0)  -->
<svg version="1.1" id="Ebene_1" xmlns="http://www.w3.org/2000/svg" xmlns:xlink="http://www.w3.org/1999/xlink" x="0px" y="0px"
	 viewBox="0 0 517.3 636" style="enable-background:new 0 0 517.3 636;" xml:space="preserve">
<style type="text/css">
	.st0{fill:#FFFFFF;}
	.st1{fill:none;}
</style>
<path class="st0" d="M93.3,45.9h14V54H91.7c-7.6,0-13.8,0.5-18.6,1.6c-4.9,1.1-8.6,2.7-11.3,5c-2.7,2.3-4.5,5.1-5.5,8.5
	c-1,3.4-1.5,7.6-1.5,12.4c0,8.1,0.3,16.6,0.9,25.5c0.6,8.9,0.9,17.7,0.9,26.3c0,7.9-1.6,14.2-4.7,18.8c-3.2,4.6-9.2,7.7-18.2,9.3
	v1.1c9,1.6,15.1,4.7,18.2,9.3c3.1,4.6,4.7,10.8,4.7,18.8c0,9.7-0.3,18.5-0.9,26.5c-0.6,7.9-0.9,16.4-0.9,25.4c0,4.9,0.5,9,1.5,12.4
	c1,3.4,2.8,6.3,5.5,8.5c2.7,2.2,6.5,3.9,11.3,5c4.9,1.1,11.1,1.6,18.6,1.6h15.7v8.1h-14c-16.6,0-29-2.4-37.3-7.2
	c-8.3-4.8-12.4-13.9-12.4-27.4c0-10.1,0.4-19.5,1.2-28.2c0.8-8.7,1.2-17.9,1.2-27.4c0-2.7-0.5-5.4-1.6-8c-1.1-2.6-3.1-4.9-5.9-6.9
	c-2.9-2-7-3.6-12.3-4.9c-5.3-1.3-12.1-1.9-20.4-1.9v-8.6c8.3,0,15.1-0.6,20.4-1.9c5.3-1.3,9.4-2.9,12.3-4.9c2.9-2,4.9-4.3,5.9-6.9
	c1.1-2.6,1.6-5.3,1.6-8c0-8.6-0.4-17.8-1.2-27.4c-0.8-9.6-1.2-19-1.2-28.2c0-13.5,4.1-22.6,12.4-27.4C64.3,48.3,76.7,45.9,93.3,45.9
	z M157.3,183.6c0,8.5,0.9,16.2,2.8,23.2c1.9,7,4.9,13,9.2,18c4.2,5,9.8,8.8,16.6,11.5c6.8,2.7,15.3,4.1,25.4,4.1
	c8.1,0,15.8-0.8,23.1-2.3c7.3-1.5,13.8-3.3,19.6-5.3l-5.7-22.7c-4.3,1.6-8.9,2.9-13.6,3.9c-4.8,1-10,1.5-15.8,1.5
	c-11.3,0-19.3-2.6-23.8-7.7c-4.5-5.1-6.8-13.2-6.8-24.2v-54.5h60.2v-24.6h-60.2V68.3h-25.6l-4,36.2l-36.7,1.3v23.2h35.4V183.6z
	 M263.4,200.2c-3.8-8.5-5.7-18.3-5.7-29.3c0-10.8,1.9-20.5,5.8-29.2c3.9-8.6,9-16,15.3-22c6.3-6,13.5-10.6,21.7-13.8
	c8.2-3.1,16.6-4.7,25.2-4.7c9.9,0,18.7,1.6,26.3,4.7c7.6,3.2,14.1,7.5,19.3,13c5.2,5.5,9.2,12.1,11.9,19.8c2.7,7.7,4,16.2,4,25.4
	c0,3.1-0.1,5.9-0.4,8.4c-0.3,2.5-0.6,4.6-0.9,6.2h-96.4c1.4,12.1,6.2,21.3,14.3,27.8c8.1,6.5,18.2,9.7,30.2,9.7
	c6.8,0,13.2-0.9,19.2-2.8c5.9-1.9,12-4.5,18.1-8l10.5,19.4c-7.2,4.5-15.2,8.2-24,11.1c-8.8,2.9-18.1,4.3-27.8,4.3
	c-10.1,0-19.5-1.6-28.3-4.7c-8.8-3.1-16.5-7.7-23-13.6C272.3,216,267.2,208.8,263.4,200.2z M289.3,159h69.4
	c0-10.6-2.7-18.9-8.1-24.8c-5.4-5.9-13.4-8.9-24-8.9c-4.5,0-8.8,0.7-13,2.2c-4.1,1.4-7.9,3.6-11.2,6.5c-3.3,2.9-6.2,6.4-8.5,10.5
	C291.6,148.6,290,153.5,289.3,159z M515.9,104.5v184.9h-31.3v-44.5l1.3-22.1c-5.2,5-11.2,9.2-18,12.6s-13.7,5-20.9,5
	c-8.5,0-16.2-1.6-23.2-4.7c-7-3.1-13-7.7-18-13.6c-5-5.9-8.8-13.2-11.5-21.7c-2.7-8.5-4.1-18.3-4.1-29.3c0-10.8,1.6-20.5,4.9-29.2
	s7.6-15.9,13.1-21.9c5.5-5.9,11.7-10.5,18.8-13.8c7-3.2,14.3-4.9,21.9-4.9c7.7,0,14.7,1.4,20.9,4.3c6.2,2.9,12.2,7.2,18,13h0.8
	l2.7-14H515.9z M484.5,139.1c-4.7-4.5-9.4-7.6-14-9.5c-4.7-1.8-9.5-2.7-14.3-2.7c-4.7,0-9,1-13.1,3c-4,2-7.6,4.8-10.7,8.5
	c-3.1,3.7-5.5,8.2-7.3,13.6c-1.8,5.4-2.7,11.6-2.7,18.6c0,14.4,2.8,25.3,8.4,32.8c5.6,7.5,13.5,11.2,23.8,11.2c11,0,21-5.3,30-15.9
	V139.1z M52,529.2c-4.1,0-7.9,1.5-11.2,4.5c-3.3,3-5,7.3-5,13.1c0,5.6,1.7,9.9,5,13c3.3,3.1,7.1,4.6,11.2,4.6
	c4.1,0,7.9-1.5,11.2-4.6c3.3-3.1,5-7.4,5-13c0-5.8-1.7-10.1-5-13.1C59.9,530.7,56.1,529.2,52,529.2z M52,427.2
	c-4.1,0-7.9,1.5-11.2,4.5c-3.3,3-5,7.3-5,13.1c0,5.6,1.7,9.9,5,13c3.3,3.1,7.1,4.6,11.2,4.6c4.1,0,7.9-1.5,11.2-4.6
	c3.3-3.1,5-7.4,5-13c0-5.8-1.7-10.1-5-13.1C59.9,428.6,56.1,427.2,52,427.2z M221.8,538.9c-6.8,0-12.5-1.8-17-5.5
	c-4.5-3.7-6.8-10-6.8-19V370.5h-72.9V395H167v117.7c0,16.4,4,29.1,11.9,38.1c7.9,9,19.7,13.5,35.4,13.5c7.7,0,14.4-0.7,19.8-2.2
	c5.5-1.4,11.4-3.2,17.7-5.4l-7.3-22.9C235.9,537.2,228.3,538.9,221.8,538.9z M339,493.6c-2.2,6.3-4.4,12.8-6.8,19.4
	c-2.3,6.7-4.5,13.1-6.5,19.4h-1.1c-2.5-6.7-5-13.3-7.3-20c-2.3-6.7-4.8-13-7.3-18.9l-27.3-65.1h-31l59.4,131l-3.2,8.4
	c-2.7,6.7-6.6,12.1-11.6,16.3c-5,4.2-11.8,6.3-20.2,6.3c-2,0-3.9-0.2-5.7-0.5c-1.8-0.4-3.6-0.8-5.4-1.3l-5.9,24.3
	c2.5,0.9,5.4,1.6,8.6,2c3.2,0.4,6.7,0.7,10.3,0.7c7.9,0,14.9-1.1,21.1-3.4c6.1-2.3,11.5-5.5,16.2-9.7c4.7-4.2,8.8-9.3,12.3-15.3
	c3.5-5.9,6.7-12.7,9.6-20.2l55.3-138.5H363L339,493.6z M470.5,474.9c-2.9-2-4.9-4.3-5.9-6.9c-1.1-2.6-1.6-5.3-1.6-8
	c0-8.6,0.4-17.8,1.1-27.4c0.7-9.6,1.1-19,1.1-28.2c0-13.5-4-22.6-12.1-27.4c-8.1-4.8-20.5-7.2-37.3-7.2h-14v8.1h15.7
	c7.6,0,13.8,0.5,18.6,1.6c4.9,1.1,8.7,2.7,11.5,5c2.8,2.3,4.7,5.1,5.8,8.5c1.1,3.4,1.6,7.6,1.6,12.4c0,8.1-0.4,16.6-1.1,25.5
	c-0.7,8.9-1.1,17.7-1.1,26.3c0,7.9,1.5,14.2,4.6,18.8c3.1,4.6,9.1,7.7,18.1,9.3v1.1c-9,1.6-15,4.8-18.1,9.4
	c-3.1,4.7-4.6,10.9-4.6,18.6c0,9.7,0.4,18.5,1.1,26.5c0.7,7.9,1.1,16.4,1.1,25.4c0,4.9-0.5,9-1.6,12.4c-1.1,3.4-3,6.3-5.8,8.5
	c-2.8,2.2-6.6,3.9-11.5,5c-4.9,1.1-11.1,1.6-18.6,1.6h-15.7v8.1h14c16.7,0,29.2-2.4,37.3-7.2c8.1-4.8,12.1-13.9,12.1-27.4
	c0-10.1-0.4-19.5-1.1-28.2c-0.7-8.7-1.1-17.9-1.1-27.4c0-2.7,0.5-5.4,1.6-8c1.1-2.6,3.1-4.9,5.9-6.9c2.9-2,6.9-3.6,12.2-4.9
	c5.2-1.3,12-1.9,20.2-1.9v-8.6c-8.3,0-15-0.6-20.2-1.9C477.4,478.6,473.4,476.9,470.5,474.9z"/>
<rect x="517.3" y="173.9" class="st1" width="54.7" height="1"/>
</svg>
